<?xml version="1.0" standalone="no"?>
<!DOCTYPE svg PUBLIC "-//W3C//DTD SVG 20010904//EN"
 "http://www.w3.org/TR/2001/REC-SVG-20010904/DTD/svg10.dtd">
<svg version="1.0" xmlns="http://www.w3.org/2000/svg"
 width="225.000000pt" height="225.000000pt" viewBox="0 0 225.000000 225.000000"
 preserveAspectRatio="xMidYMid meet">

<g transform="translate(0.000000,225.000000) scale(0.100000,-0.100000)"
fill="#000000" stroke="none">
<path d="M278 2234 c6 -11 19 -27 28 -35 16 -13 16 -12 6 7 -6 11 -19 27 -28
35 -16 13 -16 12 -6 -7z"/>
<path d="M1540 2246 c0 -2 11 -6 25 -8 13 -3 22 -1 19 3 -5 9 -44 13 -44 5z"/>
<path d="M170 2231 c0 -5 5 -13 10 -16 6 -3 10 -2 10 4 0 5 -4 13 -10 16 -5 3
-10 2 -10 -4z"/>
<path d="M1600 2224 c0 -8 -4 -12 -10 -9 -5 3 -10 1 -10 -4 0 -6 7 -11 15 -11
8 0 15 9 15 20 0 11 -2 20 -5 20 -3 0 -5 -7 -5 -16z"/>
<path d="M200 2196 c0 -2 8 -10 18 -17 15 -13 16 -12 3 4 -13 16 -21 21 -21
13z"/>
<path d="M580 2170 c-27 -27 -34 -61 -27 -136 6 -57 4 -64 -11 -64 -26 0 -323
-99 -349 -116 -49 -31 -93 -166 -93 -282 0 -39 -7 -101 -16 -139 -22 -93 -14
-282 15 -373 15 -48 19 -79 14 -120 -11 -107 42 -225 129 -289 46 -34 123 -61
172 -61 18 0 100 -36 205 -88 97 -49 199 -97 226 -107 28 -10 57 -26 67 -36
12 -14 18 -16 22 -7 5 10 7 10 12 0 4 -9 12 -4 26 14 15 19 18 28 9 37 -8 8
-11 5 -11 -12 0 -20 -3 -22 -27 -16 -15 3 -30 10 -33 13 -3 4 -16 8 -29 10
-13 1 -65 22 -115 47 -84 41 -88 43 -46 37 25 -4 90 -6 145 -5 118 1 224 27
332 79 69 33 76 34 92 20 10 -9 22 -16 27 -16 15 -1 57 -40 50 -47 -3 -3 -14
1 -24 10 -28 25 -39 20 -14 -6 l21 -23 -52 -40 c-29 -22 -78 -56 -109 -75 -51
-30 -55 -34 -37 -41 17 -7 20 -15 17 -38 -5 -31 8 -41 18 -15 4 8 -1 26 -9 38
-15 23 -14 25 16 42 18 10 63 41 101 68 l69 51 24 -30 c13 -16 40 -63 61 -103
35 -71 37 -80 37 -170 0 -78 -4 -104 -21 -138 -20 -40 -20 -43 -3 -43 10 0 24
8 31 18 10 14 32 21 92 26 88 8 154 30 218 72 23 16 51 28 62 26 11 -2 31 -31
52 -75 39 -84 45 -73 9 16 -35 89 -30 117 26 143 60 29 73 46 65 86 -4 18 -7
48 -7 66 1 38 -12 67 -45 100 -18 18 -21 31 -17 58 4 25 1 40 -12 54 -24 26
-76 26 -99 1 -10 -11 -24 -17 -31 -15 -7 3 -50 -6 -95 -20 -44 -14 -89 -26
-99 -26 -20 0 -31 -19 -31 -51 0 -10 -2 -19 -5 -19 -13 0 -155 75 -155 82 0 4
15 27 33 51 48 63 93 169 127 298 16 62 37 139 46 169 15 55 15 64 -1 340 -10
178 -119 317 -269 345 -23 5 -57 25 -89 52 -90 77 -209 139 -317 163 -88 20
-85 18 -68 38 23 26 28 50 18 77 -15 40 -53 49 -106 26 l-44 -20 -14 33 c-29
69 -113 99 -156 56z m115 -42 c22 -26 26 -39 23 -79 l-3 -48 36 35 c44 43 93
59 114 38 8 -9 15 -19 15 -22 0 -16 -34 -55 -62 -72 l-30 -18 33 -17 c19 -10
42 -24 52 -33 10 -9 17 -10 17 -4 0 6 -10 18 -22 27 -22 16 -22 16 17 10 159
-27 298 -99 416 -215 47 -47 99 -107 115 -135 16 -27 54 -75 84 -105 68 -68
97 -127 110 -223 29 -207 -89 -445 -298 -599 -223 -165 -516 -202 -747 -94
-57 27 -66 35 -50 41 100 35 168 93 212 179 37 72 43 180 14 256 -44 116 -151
190 -277 190 -70 0 -70 0 -86 34 -15 30 -15 35 -1 49 13 13 13 30 -6 160 -22
153 -27 270 -12 309 10 26 131 99 199 120 31 9 41 17 36 28 -3 8 -8 50 -11 92
-5 62 -2 82 11 103 24 37 67 34 101 -7z m-530 -917 c13 -82 13 -111 4 -133 -6
-15 -15 -28 -19 -28 -27 0 -53 278 -33 350 6 21 9 17 20 -30 7 -30 20 -102 28
-159z m351 -109 c91 -46 152 -156 139 -246 -9 -59 -54 -128 -104 -162 -60 -39
-157 -45 -230 -13 -96 41 -164 160 -146 257 14 79 83 157 161 182 44 14 135 5
180 -18z m1038 -264 c-19 -68 -97 -225 -129 -261 -24 -26 -27 -27 -59 -16 -19
7 -44 20 -56 29 l-23 17 44 31 c56 39 157 143 198 205 18 26 34 47 36 47 2 0
-3 -24 -11 -52z m347 -268 c19 -11 26 -44 11 -54 -5 -3 -27 -7 -50 -8 -22 -2
-40 -5 -39 -8 1 -3 -5 -20 -12 -39 -13 -30 -12 -37 5 -70 23 -46 54 -87 54
-73 0 6 -4 14 -10 17 -15 9 -12 58 5 82 37 53 115 31 115 -32 0 -29 -4 -35
-21 -35 -31 0 -78 -31 -81 -53 -4 -27 -106 -64 -124 -45 -22 26 -87 153 -70
139 14 -12 13 -7 -4 22 -12 20 -26 35 -30 32 -4 -3 -11 2 -14 11 -3 8 -2 13 3
10 5 -4 7 3 4 14 -4 14 0 20 11 20 10 0 14 5 10 11 -4 8 1 9 16 4 13 -4 20 -3
17 2 -4 5 8 10 24 10 17 0 34 4 37 9 13 17 47 10 45 -11 -1 -14 7 -10 32 18
38 41 38 41 66 27z m-439 -90 c34 -17 77 -33 93 -36 26 -5 39 -21 97 -127 37
-67 72 -121 78 -119 6 1 9 -2 5 -8 -15 -24 8 -28 51 -9 69 29 73 12 7 -32 -67
-45 -194 -89 -258 -89 l-44 0 11 31 c6 17 8 65 6 108 -5 88 -39 172 -101 253
-52 67 -41 73 55 28z m463 1 c3 -5 -11 -15 -31 -21 -20 -7 -40 -22 -46 -36
-14 -30 -28 -31 -28 -1 0 39 27 67 65 67 19 0 36 -4 40 -9z m-296 -45 c9 -10
8 -15 -3 -19 -9 -4 -18 -1 -22 5 -5 7 -2 8 6 3 10 -6 12 -4 7 8 -8 21 -3 22
12 3z m35 -12 c3 -8 2 -12 -4 -9 -6 3 -10 10 -10 16 0 14 7 11 14 -7z m-18
-29 c-1 -8 -6 -18 -11 -22 -4 -4 -5 -2 -1 5 4 7 2 12 -6 12 -9 0 -9 3 2 10 19
12 19 13 16 -5z m23 -69 c-3 -3 -11 5 -18 17 -13 21 -12 21 5 5 10 -10 16 -20
13 -22z m41 -43 c0 -7 5 -13 11 -13 5 0 7 -4 4 -10 -7 -12 -26 -14 -24 -2 3
17 -2 33 -8 29 -5 -3 -8 6 -8 19 0 22 1 23 13 7 6 -9 12 -23 12 -30z m278 12
c2 -16 1 -27 -3 -23 -4 4 -14 0 -22 -8 -19 -18 -42 -15 -57 8 -15 24 19 60 53
56 21 -2 27 -9 29 -33z m-111 -62 c1 -22 -1 -24 -8 -10 -6 9 -7 22 -4 27 9 14
10 13 12 -17z m-134 3 c3 -8 0 -17 -8 -19 -11 -5 -13 6 -6 31 2 6 9 0 14 -12z
m44 -12 c-3 -3 -12 -4 -19 -1 -8 3 -5 6 6 6 11 1 17 -2 13 -5z m48 -4 c-3 -5
-11 -10 -16 -10 -6 0 -7 5 -4 10 3 6 11 10 16 10 6 0 7 -4 4 -10z m-60 -30
c-3 -5 -12 -10 -18 -10 -7 0 -6 4 3 10 19 12 23 12 15 0z"/>
<path d="M1098 1755 c64 -33 148 -112 191 -180 17 -27 31 -44 31 -39 0 18 -58
102 -99 143 -48 48 -109 88 -148 97 -17 4 -8 -4 25 -21z"/>
<path d="M614 1475 c3 -76 35 -144 97 -207 44 -44 133 -98 161 -98 7 0 -11 11
-40 25 -66 31 -157 120 -184 182 -12 27 -25 73 -29 103 l-8 55 3 -60z"/>
<path d="M1232 1463 c-11 -10 -23 -28 -27 -41 -6 -22 -6 -22 21 3 15 14 45 28
68 32 32 5 36 8 21 14 -33 13 -62 10 -83 -8z"/>
<path d="M1260 1342 c-44 -24 -80 -84 -64 -109 22 -36 91 -28 130 14 30 33 33
88 5 103 -26 13 -31 13 -71 -8z m40 -16 c0 -15 -55 -66 -71 -66 -18 0 -8 32
17 55 30 28 54 32 54 11z"/>
<path d="M1005 1308 c-27 -21 -64 -89 -65 -117 0 -8 13 4 29 25 34 47 66 76
106 97 l30 16 -36 1 c-23 0 -47 -8 -64 -22z"/>
<path d="M1180 1057 c-84 -42 -86 -42 -187 -40 -135 3 -148 -6 -148 -104 2
-164 120 -269 295 -261 88 4 139 26 184 82 38 46 47 134 22 219 -9 30 -16 67
-16 82 0 39 -18 65 -43 64 -12 0 -60 -19 -107 -42z m121 2 c31 -59 -37 -146
-134 -170 -63 -15 -181 -15 -222 1 -62 24 -84 70 -49 105 14 13 30 15 94 9 89
-7 163 9 220 50 43 31 76 33 91 5z m9 -314 c0 -19 -17 -28 -26 -14 -5 8 -3 9
6 4 10 -6 12 -3 8 13 -4 12 -2 20 3 16 5 -3 9 -11 9 -19z"/>
<path d="M361 1098 c-49 -8 -98 -42 -133 -90 -19 -28 -23 -45 -23 -108 0 -66
4 -80 29 -118 44 -65 106 -97 186 -97 120 1 200 71 208 184 11 148 -114 256
-267 229z m227 -169 c1 -36 -21 -48 -47 -25 -21 19 -45 21 -38 4 2 -7 10 -12
16 -10 6 1 11 -2 11 -7 0 -8 -44 -19 -97 -24 -13 -1 -23 -6 -23 -11 0 -5 -3
-6 -7 -3 -3 4 -12 2 -20 -4 -7 -6 -13 -9 -13 -6 0 3 -13 2 -30 -3 -32 -9 -37
-1 -23 35 5 16 8 15 24 -6 l17 -23 -5 30 -4 29 14 -25 15 -24 4 24 c2 19 9 25
26 24 12 0 22 3 22 7 0 4 9 5 20 2 12 -3 20 0 20 6 0 7 4 10 8 7 5 -3 26 0 48
6 21 6 42 11 47 10 4 -1 7 3 7 8 0 25 7 7 8 -21z m-293 -79 c0 -29 -34 -40
-54 -17 -18 23 -2 49 28 45 20 -2 26 -8 26 -28z"/>
<path d="M550 921 c0 -6 5 -13 10 -16 6 -3 10 1 10 9 0 9 -4 16 -10 16 -5 0
-10 -4 -10 -9z"/>
<path d="M1760 375 c-19 -22 -8 -25 13 -3 9 10 13 18 8 18 -5 0 -14 -7 -21
-15z"/>
<path d="M1493 2140 c-29 -17 -53 -33 -53 -36 0 -3 15 4 33 15 19 11 49 27 68
35 19 9 27 15 19 16 -8 0 -39 -14 -67 -30z"/>
<path d="M1630 2154 c19 -8 43 -25 53 -37 l18 -22 -11 22 c-11 23 -58 53 -82
53 -7 -1 3 -8 22 -16z"/>
<path d="M245 2151 c-3 -5 -1 -12 5 -16 5 -3 10 1 10 9 0 18 -6 21 -15 7z"/>
<path d="M1701 2074 c0 -11 3 -14 6 -6 3 7 2 16 -1 19 -3 4 -6 -2 -5 -13z"/>
<path d="M295 2050 l-30 -8 27 -1 c15 0 30 4 33 9 3 6 5 9 3 9 -2 -1 -16 -5
-33 -9z"/>
<path d="M228 2033 c7 -3 16 -2 19 1 4 3 -2 6 -13 5 -11 0 -14 -3 -6 -6z"/>
<path d="M212 1990 c0 -14 2 -19 5 -12 2 6 2 18 0 25 -3 6 -5 1 -5 -13z"/>
<path d="M247 1990 c3 -11 7 -20 9 -20 2 0 4 9 4 20 0 11 -4 20 -9 20 -5 0 -7
-9 -4 -20z"/>
<path d="M1710 1800 c0 -101 3 -180 7 -176 8 8 5 347 -3 355 -2 2 -4 -78 -4
-179z"/>
<path d="M1770 1829 c-14 -26 11 -69 40 -69 11 0 27 11 35 24 23 34 5 66 -35
66 -19 0 -33 -7 -40 -21z m68 -15 c4 -25 -20 -47 -42 -38 -16 6 -22 45 -9 58
14 14 48 1 51 -20z"/>
<path d="M1745 1550 c-4 -6 3 -10 14 -10 25 0 27 6 6 13 -8 4 -17 2 -20 -3z"/>
<path d="M1840 1506 c28 -17 60 -22 45 -7 -6 5 -23 12 -40 16 l-30 6 25 -15z"/>
<path d="M1940 1460 c19 -13 30 -13 30 0 0 6 -10 10 -22 10 -19 0 -20 -2 -8
-10z"/>
<path d="M1723 1340 c0 -47 2 -66 4 -42 2 23 2 61 0 85 -2 23 -4 4 -4 -43z"/>
<path d="M2090 1165 c0 -8 -7 -15 -15 -15 -20 0 -19 -16 1 -24 8 -3 13 -10 10
-15 -3 -5 1 -11 9 -15 9 -3 15 0 15 9 0 8 7 15 15 15 8 0 15 7 15 15 0 8 -7
15 -15 15 -9 0 -12 6 -9 15 4 9 0 15 -10 15 -9 0 -16 -7 -16 -15z"/>
<path d="M2160 955 c0 -8 -9 -15 -20 -15 -11 0 -20 -4 -20 -10 0 -5 7 -10 15
-10 8 0 15 -9 15 -20 0 -23 15 -27 24 -5 3 8 12 15 21 15 8 0 15 7 15 15 0 8
-7 15 -15 15 -8 0 -15 7 -15 15 0 8 -4 15 -10 15 -5 0 -10 -7 -10 -15z"/>
<path d="M1890 865 c0 -8 -9 -15 -20 -15 -23 0 -27 -15 -5 -24 8 -3 15 -12 15
-21 0 -8 7 -15 15 -15 8 0 15 7 15 15 0 8 7 15 15 15 8 0 15 4 15 9 0 5 -7 11
-15 15 -8 3 -15 12 -15 21 0 8 -4 15 -10 15 -5 0 -10 -7 -10 -15z"/>
<path d="M2076 791 c-4 -5 -2 -12 3 -15 5 -4 12 -2 15 3 4 5 2 12 -3 15 -5 4
-12 2 -15 -3z"/>
<path d="M1915 680 c3 -5 8 -10 11 -10 2 0 4 5 4 10 0 6 -5 10 -11 10 -5 0 -7
-4 -4 -10z"/>
<path d="M619 375 c-60 -136 -64 -375 -7 -375 17 0 19 4 12 27 -5 16 -9 78 -9
138 1 107 5 130 50 238 5 12 2 17 -9 17 -11 0 -25 -18 -37 -45z"/>
<path d="M1025 411 c-3 -6 10 -8 32 -5 29 4 34 3 23 -5 -12 -9 -9 -11 16 -11
16 0 35 -5 42 -12 9 -9 12 -9 12 0 0 26 -111 55 -125 33z"/>
<path d="M828 320 c-34 -10 -115 -68 -122 -87 -3 -7 9 -3 27 11 42 32 115 65
170 75 l42 9 -45 0 c-25 0 -57 -3 -72 -8z"/>
<path d="M1140 250 c0 -18 122 -250 132 -250 4 0 -22 57 -59 127 -75 144 -73
141 -73 123z"/>
<path d="M1121 179 c-15 -51 -43 -99 -86 -148 -16 -19 -23 -32 -15 -29 37 12
129 177 117 211 -1 5 -9 -10 -16 -34z"/>
</g>
</svg>
