<?xml version="1.0" encoding="UTF-8"?>
<svg id="Camada_1" data-name="Camada 1" xmlns="http://www.w3.org/2000/svg" version="1.1" viewBox="0 0 500 500">
  <defs>
    <style>
      .cls-1 {
        fill: #000;
      }

      .cls-1, .cls-2, .cls-3 {
        stroke-width: 0px;
      }

      .cls-2 {
        fill: #1d1d1b;
      }

      .cls-3 {
        fill: #fff;
      }
    </style>
  </defs>
  <g>
    <path class="cls-3" d="M422.75,431.36H77.25V85.87c115.16,0,230.33,0,345.49,0v345.49ZM301.4,338.45c.96.25,1.77.44,2.57.66,8.88,2.47,17.8-.94,22.67-8.73,2.54-4.07,3.73-8.55,3.49-13.32-.56-11.33-.98-22.67-1.96-33.96-1.24-14.2-2.86-28.37-4.56-42.52-1.22-10.08-6.4-17.51-16.01-21.36-7.55-3.02-15.22-5.75-22.82-8.66-.74-.28-1.57-.73-2.01-1.35-2.21-3.11-4.29-6.31-6.45-9.46-.58-.84-.51-1.48-.05-2.42,1.99-4,3.83-8.08,5.74-12.13.26-.54.54-1.13.97-1.51,5.65-5.04,7.55-12.16,4.59-19.24-1.14-2.73-1.54-5.25-.98-8.08.3-1.54.38-3.12.49-4.69.4-5.57.54-11.15-1.58-16.45-2.08-5.2-5.24-9.29-11.31-10.09-.43-.06-.82-.51-1.22-.79-2.15-1.5-4.13-3.38-6.48-4.43-9.6-4.28-19.41-4.01-29.21-.59-4.17,1.45-7.89,3.68-10.15,7.62-1.19,2.06-2.22,4.05-4.74,4.75-.59.17-1.1.76-1.57,1.23-2.68,2.65-4.17,5.99-4.29,9.63-.17,5.2.06,10.42.38,15.62.12,1.91-.04,3.53-.88,5.28-2.93,6.13-2.32,15.48,4.43,20.39.33.24.5.71.69,1.11,1.87,4.07,3.66,8.17,5.62,12.19.52,1.06.58,1.76-.08,2.73-2,2.91-3.86,5.93-5.9,8.81-.57.8-1.53,1.48-2.46,1.84-7.69,2.99-15.44,5.81-23.11,8.85-6.16,2.44-10.88,6.66-13.35,12.84-1.36,3.39-2.14,7.09-2.6,10.73-1.45,11.42-2.82,22.85-3.84,34.31-1.02,11.52-1.62,23.07-2.33,34.61-.27,4.42-.47,8.86.85,13.21,3.62,11.87,14.99,17.06,24.92,13.7.89-.3,1.81-.53,2.84-.82,0,2.3.02,4.47,0,6.65-.01,1.26.52,1.86,1.82,1.83,1.85-.04,3.71-.08,5.56,0,1.49.06,1.99-.6,1.96-2.01-.05-2.69.1-5.4-.05-8.08-.09-1.59.52-2.26,1.92-2.82,10.33-4.1,20.62-8.29,30.94-12.41.61-.24,1.44-.28,2.06-.08,15,4.86,29.99,9.78,44.99,14.65.83.27,1.15.68,1.15,1.54,0,2.41.13,4.83.13,7.24,0,1.42.54,2.06,2.01,1.99,1.74-.08,3.48-.07,5.22-.02,1.44.04,2.05-.55,2-2-.06-1.95-.02-3.9-.02-6.01Z"/>
    <path class="cls-1" d="M301.4,338.45c0,2.11-.05,4.06.02,6.01.05,1.45-.56,2.04-2,2-1.74-.05-3.48-.06-5.22.02-1.47.07-2.01-.58-2.01-1.99,0-2.41-.12-4.83-.13-7.24,0-.87-.32-1.28-1.15-1.54-15-4.88-29.99-9.79-44.99-14.65-.62-.2-1.46-.16-2.06.08-10.32,4.11-20.61,8.3-30.94,12.41-1.4.56-2.01,1.23-1.92,2.82.15,2.69,0,5.39.05,8.08.03,1.41-.47,2.07-1.96,2.01-1.85-.08-3.71-.03-5.56,0-1.3.03-1.83-.57-1.82-1.83.03-2.17,0-4.34,0-6.65-1.03.3-1.95.52-2.84.82-9.93,3.36-21.3-1.83-24.92-13.7-1.33-4.35-1.12-8.78-.85-13.21.71-11.54,1.3-23.1,2.33-34.61,1.02-11.46,2.39-22.89,3.84-34.31.46-3.64,1.25-7.34,2.6-10.73,2.47-6.17,7.2-10.39,13.35-12.84,7.67-3.04,15.42-5.86,23.11-8.85.93-.36,1.89-1.04,2.46-1.84,2.05-2.88,3.9-5.9,5.9-8.81.67-.97.6-1.68.08-2.73-1.96-4.02-3.75-8.12-5.62-12.19-.18-.4-.36-.87-.69-1.11-6.75-4.92-7.36-14.27-4.43-20.39.84-1.75,1-3.37.88-5.28-.32-5.2-.56-10.42-.38-15.62.12-3.65,1.61-6.98,4.29-9.63.47-.47.98-1.07,1.57-1.23,2.52-.7,3.55-2.69,4.74-4.75,2.27-3.94,5.99-6.17,10.15-7.62,9.79-3.41,19.6-3.69,29.21.59,2.35,1.05,4.33,2.93,6.48,4.43.4.28.78.73,1.22.79,6.07.8,9.23,4.89,11.31,10.09,2.12,5.3,1.98,10.88,1.58,16.45-.11,1.57-.19,3.15-.49,4.69-.56,2.83-.16,5.34.98,8.08,2.96,7.08,1.06,14.2-4.59,19.24-.43.38-.71.97-.97,1.51-1.91,4.04-3.75,8.12-5.74,12.13-.47.94-.53,1.58.05,2.42,2.16,3.14,4.24,6.35,6.45,9.46.44.62,1.27,1.06,2.01,1.35,7.6,2.9,15.27,5.63,22.82,8.66,9.6,3.85,14.79,11.28,16.01,21.36,1.71,14.15,3.32,28.32,4.56,42.52.99,11.29,1.4,22.63,1.96,33.96.24,4.77-.95,9.25-3.49,13.32-4.87,7.8-13.78,11.21-22.67,8.73-.8-.22-1.61-.41-2.57-.66ZM274.49,299.15c-.36-.84-.61-1.51-.92-2.15-1.29-2.68-2.59-5.35-3.91-8.02q-1.25-2.55-4.12-1.93c-.93.2-1.87.38-2.79.62-16.7,4.45-33.39,8.94-50.09,13.36-5.18,1.37-3.55,1.78-6.9-2.21-1.28-1.53-2.59-2.44-4.59-2.56-1.79-.1-3.56-.45-5.34-.73-6.27-.98-8.83-5.63-6.4-11.44.28-.67.12-1.57.02-2.34-.22-1.75-.92-3.54-.73-5.24.67-5.86,5.11-9.72,11.5-10.34,2.61-.26,2.61-.26,2.61-2.95,0-4.04-.07-8.09,0-12.13.05-3.23,2.88-5.15,5.8-4.06,1.8.67,2.69,2.04,2.7,4.42.04,5.11.07,10.22,0,15.33-.01,1.18.43,1.72,1.43,2.28,3.08,1.72,6.28,3.34,9.04,5.49,3.98,3.09,7.68,6.55,11.36,10,1.24,1.16,2.24,1.62,3.96,1.12,5.23-1.51,10.5-2.87,15.78-4.18,5.93-1.47,11.87-2.9,17.84-4.21,2.26-.5,2.95,0,4.05,2.05,1.01,1.88,2.03,3.75,2.96,5.67.42.87.96,1.12,1.94,1.19,3.3.21,6.59.59,9.88.93.74.08,1.47.27,2.36.43,0-1.31,0-2.37,0-3.43,0-7.58-.03-15.17.01-22.75.02-3.15,2.85-5.26,5.57-4.25,1.93.72,2.94,2.46,2.94,5.18.02,14.38.04,28.76.05,43.14,0,1.96-.97,2.78-2.93,2.25-3.68-.99-7.33-2.12-11.02-3.11-.7-.19-1.57-.25-2.22,0-6.32,2.48-12.62,5.03-18.9,7.6-2.47,1.01-4.9,2.12-7.69,3.34,1.04.38,1.7.64,2.38.86,8.96,2.93,17.88,5.95,26.88,8.76,6.74,2.11,13.53,4.07,20.37,5.86,3.6.94,6.91-.24,9.64-2.75,3.11-2.85,4.7-6.51,4.52-10.67-.42-9.54-.8-19.09-1.68-28.59-1.46-15.71-3.24-31.38-5.04-47.06-.82-7.15-4.63-12.34-11.4-15.04-7.46-2.97-15-5.71-22.48-8.62-1.17-.45-1.77-.28-2.4.82-3.11,5.46-6.28,10.89-9.45,16.31-1.87,3.21-2.55,3.2-4.72.16-1.39-1.94-2.86-3.83-4.28-5.72-2.1,1.35-2.86,2.72-2.05,5.15,1.85,5.53,3.38,11.17,4.93,16.79.24.88.2,2.04-.18,2.86-3.37,7.22-6.84,14.38-10.29,21.56-.2.41-.52.77-.92,1.33-.37-.62-.62-.97-.81-1.36-3.37-6.91-6.7-13.84-10.1-20.74-.69-1.41-.77-2.73-.33-4.21,1.74-5.8,3.44-11.62,5.1-17.45.16-.56.17-1.34-.1-1.81-.5-.83-1.27-1.5-2.09-2.42-1.67,2.25-3.1,4.18-4.52,6.11-2.13,2.9-2.93,2.87-4.71-.23-3.05-5.31-6.07-10.63-9.12-15.93-.35-.62-.78-1.19-1.16-1.78-8.08,3.06-16.01,6.02-23.92,9.06-6.28,2.41-10.05,7.02-11.28,13.6-.64,3.42-1.02,6.89-1.38,10.35-1.34,12.84-2.78,25.67-3.87,38.54-.81,9.51-1.28,19.05-1.56,28.59-.07,2.45.76,5.16,1.93,7.36,2.35,4.42,7.29,7.31,12.98,5.34,1.96-.68,3.92-1.37,5.84-2.15,20.44-8.28,40.87-16.57,61.3-24.87,3.52-1.43,7.04-2.89,10.71-4.4ZM271.34,139.28c-13.26,8.83-26.17,9.72-39.18-.39-.11.76-.28,1.38-.27,2.01.01,1.29.13,2.58.19,3.87.27,5.72-1.22,10.65-6.21,14.08-.38.26-.62,1.05-.59,1.56.27,3.8.36,7.64,1,11.39,1.5,8.74,4.51,16.89,10.26,23.83,5.75,6.94,14.12,9.3,22.06,6.13,4.96-1.97,8.43-5.66,11.15-10.11,5.88-9.62,8.3-20.15,8.13-31.33,0-.59-.46-1.37-.95-1.73-2.82-2.13-4.74-4.86-5.24-8.34-.36-2.48-.27-5.02-.36-7.53-.04-1.04,0-2.09,0-3.43ZM265.85,223.73c2.28-4.03,4.69-8.26,7.05-12.52.17-.31.1-.9-.07-1.25-.87-1.74-1.82-3.45-2.74-5.17-12.33,8.81-24.53,9.5-36.77-.15-1.05,1.88-2.09,3.67-3.05,5.5-.17.33-.2.91-.02,1.22,2.42,4.21,4.89,8.4,7.1,12.17,2.52-2.29,5.04-4.52,7.48-6.82,4.76-4.47,9.16-4.39,13.79.22,2.31,2.29,4.74,4.46,7.24,6.79ZM196.15,287.63c1.58.19,2.69.33,3.79.47,3.95.49,8.01.76,11.37,3.18,1.27.91,2.34,1.06,3.69.56.47-.18.98-.24,1.46-.38,2.94-.85,5.87-1.71,8.86-2.59-.18-.35-.22-.54-.33-.64-5.69-5.46-11.56-10.69-19.17-13.35-1.7-.6-3.61-.84-5.42-.82-2.17.02-3.43,1.3-3.71,3.17.33.04.66.09.98.11,5.28.46,10.18,2.15,14.86,4.55.59.3,1.14.73,1.62,1.18,1.17,1.11,1.38,2.72.6,3.98-.88,1.4-2.08,1.8-3.8,1.21-3.18-1.09-6.3-2.36-9.54-3.23-1.15-.31-2.61.21-3.82.64-.55.19-.84,1.1-1.45,1.96ZM291.9,297.26c0-.68-.06-1.3.01-1.9.18-1.5-.36-2.56-1.87-2.86-3.02-.58-6.07-1.06-9.11-1.58-.15.25-.29.5-.44.75.89,1.19,1.55,2.98,2.72,3.44,2.67,1.04,5.6,1.43,8.68,2.15Z"/>
    <path class="cls-3" d="M274.49,299.15c-3.68,1.51-7.19,2.97-10.71,4.4-20.43,8.3-40.86,16.59-61.3,24.87-1.92.78-3.88,1.48-5.84,2.15-5.68,1.96-10.62-.92-12.98-5.34-1.17-2.19-2-4.91-1.93-7.36.27-9.54.75-19.08,1.56-28.59,1.09-12.86,2.53-25.7,3.87-38.54.36-3.46.74-6.93,1.38-10.35,1.23-6.57,5-11.18,11.28-13.6,7.91-3.04,15.84-6.01,23.92-9.06.39.59.81,1.16,1.16,1.78,3.05,5.31,6.07,10.63,9.12,15.93,1.78,3.1,2.57,3.13,4.71.23,1.43-1.93,2.86-3.86,4.52-6.11.82.92,1.59,1.59,2.09,2.42.28.46.26,1.25.1,1.81-1.66,5.83-3.36,11.65-5.1,17.45-.45,1.49-.37,2.81.33,4.21,3.4,6.9,6.73,13.82,10.1,20.74.19.38.44.74.81,1.36.4-.57.72-.92.92-1.33,3.46-7.18,6.93-14.34,10.29-21.56.38-.81.42-1.98.18-2.86-1.55-5.62-3.09-11.26-4.93-16.79-.81-2.42-.05-3.79,2.05-5.15,1.42,1.89,2.89,3.77,4.28,5.72,2.17,3.04,2.85,3.05,4.72-.16,3.17-5.43,6.34-10.85,9.45-16.31.63-1.1,1.23-1.27,2.4-.82,7.48,2.9,15.03,5.65,22.48,8.62,6.76,2.69,10.58,7.88,11.4,15.04,1.8,15.67,3.57,31.35,5.04,47.06.89,9.5,1.26,19.05,1.68,28.59.18,4.17-1.4,7.82-4.52,10.67-2.73,2.51-6.04,3.69-9.64,2.75-6.83-1.78-13.63-3.75-20.37-5.86-8.99-2.81-17.92-5.83-26.88-8.76-.68-.22-1.34-.48-2.38-.86,2.79-1.21,5.22-2.33,7.69-3.34,6.29-2.57,12.58-5.11,18.9-7.6.65-.25,1.52-.2,2.22,0,3.68.99,7.33,2.12,11.02,3.11,1.96.53,2.93-.28,2.93-2.25-.01-14.38-.03-28.76-.05-43.14,0-2.72-1.01-4.46-2.94-5.18-2.72-1.01-5.55,1.1-5.57,4.25-.04,7.58-.01,15.17-.01,22.75,0,1.06,0,2.12,0,3.43-.89-.17-1.62-.36-2.36-.43-3.29-.34-6.58-.72-9.88-.93-.98-.06-1.51-.32-1.94-1.19-.94-1.91-1.96-3.79-2.96-5.67-1.1-2.05-1.8-2.55-4.05-2.05-5.97,1.31-11.91,2.73-17.84,4.21-5.28,1.31-10.55,2.67-15.78,4.18-1.72.5-2.72.04-3.96-1.12-3.68-3.45-7.39-6.91-11.36-10-2.77-2.15-5.96-3.77-9.04-5.49-1-.56-1.44-1.09-1.43-2.28.06-5.11.03-10.22,0-15.33-.02-2.38-.9-3.75-2.7-4.42-2.92-1.09-5.75.83-5.8,4.06-.07,4.04,0,8.09,0,12.13,0,2.7,0,2.7-2.61,2.95-6.39.63-10.83,4.48-11.5,10.34-.19,1.7.51,3.48.73,5.24.1.78.26,1.67-.02,2.34-2.44,5.8.13,10.46,6.4,11.44,1.77.28,3.55.63,5.34.73,2,.11,3.31,1.03,4.59,2.56,3.35,3.99,1.71,3.58,6.9,2.21,16.7-4.42,33.39-8.91,50.09-13.36.92-.25,1.86-.42,2.79-.62q2.87-.61,4.12,1.93c1.31,2.67,2.61,5.34,3.91,8.02.31.64.56,1.31.92,2.15ZM275.5,271.26s0-.03,0-.05c2.3,0,4.61.01,6.91,0,5.12-.03,4.75.75,4.85-4.97.03-1.44-.68-2.06-2.03-2.08-1.63-.02-3.26,0-4.89,0-4.61,0-9.21,0-13.82.02-2.39,0-2.63.27-2.62,2.59,0,.84.06,1.69,0,2.53-.12,1.5.61,1.99,2,1.97,3.2-.04,6.4-.01,9.61-.01Z"/>
    <path class="cls-3" d="M271.34,139.28c0,1.34-.03,2.39,0,3.43.09,2.51,0,5.06.36,7.53.5,3.48,2.42,6.21,5.24,8.34.49.37.94,1.14.95,1.73.17,11.18-2.25,21.72-8.13,31.33-2.72,4.45-6.19,8.14-11.15,10.11-7.95,3.16-16.32.81-22.06-6.13-5.75-6.94-8.76-15.1-10.26-23.83-.64-3.74-.74-7.58-1-11.39-.04-.52.2-1.3.59-1.56,4.99-3.43,6.48-8.36,6.21-14.08-.06-1.29-.17-2.58-.19-3.87,0-.62.16-1.25.27-2.01,13.01,10.11,25.91,9.22,39.18.39Z"/>
    <path class="cls-3" d="M265.85,223.73c-2.5-2.34-4.93-4.5-7.24-6.79-4.64-4.61-9.03-4.69-13.79-.22-2.45,2.3-4.96,4.52-7.48,6.82-2.21-3.77-4.68-7.96-7.1-12.17-.18-.31-.15-.89.02-1.22.96-1.83,2-3.62,3.05-5.5,12.24,9.65,24.44,8.96,36.77.15.92,1.73,1.87,3.43,2.74,5.17.18.35.25.93.07,1.25-2.36,4.26-4.77,8.49-7.05,12.52Z"/>
    <path class="cls-3" d="M196.15,287.63c.61-.86.9-1.76,1.45-1.96,1.21-.43,2.67-.95,3.82-.64,3.24.86,6.36,2.13,9.54,3.23,1.71.59,2.92.19,3.8-1.21.78-1.25.57-2.87-.6-3.98-.48-.46-1.03-.88-1.62-1.18-4.68-2.4-9.58-4.09-14.86-4.55-.33-.03-.65-.08-.98-.11.28-1.87,1.54-3.15,3.71-3.17,1.81-.02,3.72.22,5.42.82,7.61,2.66,13.48,7.89,19.17,13.35.11.11.15.29.33.64-2.99.87-5.92,1.73-8.86,2.59-.48.14-.99.2-1.46.38-1.34.5-2.42.36-3.69-.56-3.36-2.42-7.42-2.69-11.37-3.18-1.1-.14-2.21-.27-3.79-.47Z"/>
    <path class="cls-3" d="M291.9,297.26c-3.08-.71-6.01-1.1-8.68-2.15-1.18-.46-1.83-2.25-2.72-3.44.15-.25.29-.5.44-.75,3.04.52,6.08,1,9.11,1.58,1.5.29,2.05,1.35,1.87,2.86-.07.6-.01,1.22-.01,1.9Z"/>
    <path class="cls-1" d="M275.5,271.26c-3.2,0-6.4-.03-9.61.01-1.39.02-2.12-.47-2-1.97.07-.84.01-1.68,0-2.53-.01-2.32.23-2.58,2.62-2.59,4.61-.02,9.21-.01,13.82-.02,1.63,0,3.26-.02,4.89,0,1.35.01,2.06.63,2.03,2.08-.1,5.72.28,4.94-4.85,4.97-2.3.01-4.61,0-6.91,0,0,.02,0,.03,0,.05Z"/>
  </g>
  <g>
    <path class="cls-2" d="M190.19,365.71h4.54v34.58h-4.73v-25.9l.24,1.52-8.51,19.57h-3.38l-8.51-19.1.24-2v25.9h-4.73v-34.58h4.54l10.15,22.83,10.15-22.83Z"/>
    <path class="cls-2" d="M200.2,375.61h4.95l7.59,21.45-2.69,5.26-9.85-26.71ZM222.06,375.61l-10.51,30.46c-.38,1.12-.88,2.02-1.5,2.67-.62.66-1.38,1.13-2.28,1.42-.9.29-2.01.43-3.33.43h-.98v-4.66h.98c.9,0,1.62-.18,2.15-.55.53-.37.99-.99,1.39-1.88l9.13-27.9h4.95Z"/>
    <path class="cls-2" d="M226.81,365.71h4.85v34.58h-4.85v-34.58ZM229.17,365.71h19.86v4.61h-19.86v-4.61ZM229.17,380.81h17.24v4.61h-17.24v-4.61ZM229.17,395.68h19.86v4.61h-19.86v-4.61Z"/>
    <path class="cls-2" d="M269.98,375.61h5.07l-9.27,24.69h-3.66l-9.27-24.69h5.07l6.04,17.62,6.04-17.62Z"/>
    <path class="cls-2" d="M283.58,399.36c-1.62-.86-2.85-2.11-3.7-3.77-.85-1.66-1.27-3.66-1.27-6v-2.78c0-2.44.41-4.53,1.22-6.25.82-1.73,2-3.04,3.56-3.95,1.55-.9,3.42-1.36,5.61-1.36,2.06,0,3.82.52,5.28,1.55,1.46,1.03,2.57,2.52,3.34,4.47.77,1.95,1.15,4.29,1.15,7.02v1.62h-16.65v-3.9h12.03c-.14-2.01-.66-3.58-1.56-4.7-.9-1.12-2.1-1.68-3.6-1.68-1.84,0-3.26.6-4.27,1.81-1.01,1.21-1.51,2.91-1.51,5.11v3.14c0,2.04.54,3.61,1.62,4.71,1.08,1.09,2.61,1.64,4.59,1.64.98,0,1.96-.2,2.93-.59.97-.4,1.83-.95,2.59-1.67l3.19,3.19c-1.22,1.17-2.59,2.08-4.12,2.72-1.52.64-3.05.96-4.59.96-2.28,0-4.23-.43-5.85-1.28Z"/>
    <path class="cls-2" d="M305.44,375.61h4.85v24.69h-4.85v-24.69ZM320.42,385.33c0-1.74-.45-3.09-1.36-4.04-.9-.95-2.17-1.43-3.81-1.43s-2.81.42-3.67,1.26c-.86.84-1.3,2.02-1.3,3.54l-.5-4.76c.76-1.49,1.76-2.64,2.98-3.45s2.59-1.21,4.08-1.21c2.68,0,4.75.88,6.22,2.63,1.47,1.75,2.2,4.23,2.2,7.43v14.98h-4.85v-14.96Z"/>
    <path class="cls-2" d="M330.74,375.61h11.13v4.38h-11.13v-4.38ZM334.68,398.76c-.93-1.1-1.39-2.73-1.39-4.89v-25.45h4.85v25.49c0,.6.12,1.07.36,1.39.24.33.59.49,1.05.49h2.33v4.61h-2.81c-2,0-3.46-.55-4.39-1.65Z"/>
  </g>
</svg>